<svg xmlns="http://www.w3.org/2000/svg" viewBox="0 0 512 512" role="img" aria-label="Módulos Prefabricados San José">
  <defs>
    <radialGradient id="bg" cx="50%" cy="42%" r="78%">
      <stop offset="0" stop-color="#08224a"/>
      <stop offset="1" stop-color="#020617"/>
    </radialGradient>
    <filter id="soft" x="-10%" y="-10%" width="120%" height="120%">
      <feDropShadow dx="0" dy="6" stdDeviation="8" flood-color="#000814" flood-opacity="0.35"/>
    </filter>
  </defs>

  <rect width="512" height="512" rx="42" fill="url(#bg)"/>

  <g fill="none" stroke-linecap="butt">
    <path d="M58 247A198 198 0 0 1 454 247" stroke="#ff7a00" stroke-width="17"/>
    <path d="M58 265A198 198 0 0 0 454 265" stroke="#ffffff" stroke-width="17"/>
  </g>

  <g filter="url(#soft)" stroke-linejoin="round" stroke-linecap="square">
    <!-- Módulo prefabricado -->
    <path d="M91 177 L178 112 L421 149 L421 312 L178 334 L91 304 Z" fill="#ffffff" stroke="#ffffff" stroke-width="8"/>
    <path d="M91 177 L178 112 L178 334 L91 304 Z" fill="#f8fafc" stroke="#ffffff" stroke-width="8"/>
    <path d="M178 112 L421 149 L421 312 L178 334 Z" fill="#ffffff" stroke="#ffffff" stroke-width="8"/>

    <!-- Estructura azul -->
    <path d="M178 112 L178 334" stroke="#031b3d" stroke-width="10"/>
    <path d="M91 177 L178 112 L421 149" stroke="#031b3d" stroke-width="8"/>
    <path d="M91 304 L178 334 L421 312" stroke="#031b3d" stroke-width="8"/>
    <path d="M421 149 L421 312" stroke="#031b3d" stroke-width="8"/>

    <!-- Paneles laterales -->
    <g stroke="#cbd5e1" stroke-width="2">
      <path d="M112 181 L112 307"/>
      <path d="M132 166 L132 313"/>
      <path d="M152 151 L152 319"/>
      <path d="M214 124 L214 331"/>
      <path d="M251 130 L251 327"/>
      <path d="M288 136 L288 324"/>
      <path d="M325 141 L325 321"/>
      <path d="M362 146 L362 318"/>
    </g>

    <!-- Puerta -->
    <rect x="232" y="173" width="52" height="136" fill="#031b3d" stroke="#ffffff" stroke-width="6"/>
    <rect x="240" y="181" width="36" height="120" fill="#031b3d" stroke="#ffffff" stroke-width="3"/>
    <circle cx="268" cy="246" r="4" fill="#ffffff"/>
    <path d="M255 246 L266 246" stroke="#ffffff" stroke-width="5" stroke-linecap="round"/>

    <!-- Ventana -->
    <rect x="313" y="190" width="82" height="71" fill="#031b3d" stroke="#031b3d" stroke-width="5"/>
    <rect x="324" y="201" width="27" height="49" fill="#ffffff"/>
    <rect x="357" y="201" width="27" height="49" fill="#ffffff"/>

    <!-- Esquinas tipo contenedor -->
    <g fill="#031b3d" stroke="#ffffff" stroke-width="4">
      <rect x="170" y="110" width="18" height="18"/>
      <rect x="168" y="318" width="22" height="22"/>
      <rect x="84" y="174" width="14" height="22"/>
      <rect x="84" y="292" width="14" height="22"/>
      <rect x="412" y="146" width="16" height="16"/>
      <rect x="411" y="302" width="17" height="17"/>
    </g>
  </g>

  <!-- Monograma SJ -->
  <g transform="translate(199 357)">
    <path d="M77 0 H28 C12 0 1 10 1 24 C1 38 12 47 27 47 H55 C63 47 67 50 67 56 C67 62 63 65 55 65 H2 V86 H61 C78 86 91 75 91 57 C91 41 80 31 61 31 H33 C25 31 21 28 21 23 C21 17 25 15 32 15 H77 Z" fill="#ffffff"/>
    <path d="M93 0 H122 V58 C122 77 109 88 91 88 H76 V66 H88 C92 66 93 64 93 59 Z" fill="#ff7a00"/>
  </g>
</svg>
